<?xml version='1.0' encoding='UTF-8'?>
<svg viewBox="-2 -4 32 32" xmlns="http://www.w3.org/2000/svg">
  <g id="Layer_1" transform="translate(-2, -4)">
    <g id="Box">
      <polygon points="18,4 10,4 2,12 10,12  " fill="#FFB115" class="Yellow" />
    </g>
  </g>
  <g id="Layer_1" transform="translate(-2, -4)">
    <g id="Box">
      <rect x="2" y="14" width="20" height="14" rx="0" ry="0" fill="#FFB115" class="Yellow" />
    </g>
  </g>
  <g id="Layer_1" transform="translate(-2, -4)">
    <g id="Box">
      <polygon points="24,28 30,22 30,6.8 24,12.8  " fill="#FFB115" class="Yellow" />
    </g>
  </g>
  <g id="Layer_1" transform="translate(-2, -4)">
    <g id="Box">
      <polygon points="21,4 13,12 21.9,12 29.9,4  " fill="#FFB115" class="Yellow" />
    </g>
  </g>
  <g id="Layer_1" transform="translate(14, 12)">
    <g id="Reload">
      <path d="M16, 0L13.7, 2.3C12.2, 0.9 10.2, 0 8, 0C3.6, 0 0, 3.6 0, 8C0, 12.4 3.6, 16 8, 16C12.4, 16 16, 12.4 16, 8C16, 7.3 15.9, 6.6 15.7, 6L16, 6L16, 0z" fill="#039C23" class="Green" />
    </g>
  </g>
  <g id="Layer_1" transform="translate(14, 12)">
    <g id="Reload">
      <path d="M13.7, 6L10, 6L12.2, 3.8C11.2, 2.7 9.7, 2 8, 2C4.7, 2 2, 4.7 2, 8C2, 11.3 4.7, 14 8, 14C11.3, 14 14, 11.3 14, 8L16, 8C16, 7.3 15.9, 6.6 15.7, 6L13.7, 6z" fill="#FFFFFF" class="White" />
    </g>
  </g>
</svg>