<?xml version='1.0' encoding='UTF-8'?>
<svg viewBox="-2 -4 32 32" xmlns="http://www.w3.org/2000/svg">
  <g id="Layer_1" transform="translate(-2, -4)">
    <g id="Box">
      <polygon points="18,4 10,4 2,12 10,12  " fill="#FFB115" class="Yellow" />
    </g>
  </g>
  <g id="Layer_1" transform="translate(-2, -4)">
    <g id="Box">
      <rect x="2" y="14" width="20" height="14" rx="0" ry="0" fill="#FFB115" class="Yellow" />
    </g>
  </g>
  <g id="Layer_1" transform="translate(-2, -4)">
    <g id="Box">
      <polygon points="24,28 30,22 30,6.8 24,12.8  " fill="#FFB115" class="Yellow" />
    </g>
  </g>
  <g id="Layer_1" transform="translate(-2, -4)">
    <g id="Box">
      <polygon points="21,4 13,12 21.9,12 29.9,4  " fill="#FFB115" class="Yellow" />
    </g>
  </g>
  <g id="Layer_1" transform="translate(14, 12)">
    <g id="Rating">
      <polygon points="8,0.6 10.5,5.5 16,6.2 12,10.1 12.9,15.4 8,12.9 3.1,15.4 4,10.1 0,6.2 5.5,5.5  " fill="#039C23" class="Green" />
    </g>
  </g>
</svg>