<?xml version='1.0' encoding='UTF-8'?>
<svg viewBox="-2 -4 32 32" xmlns="http://www.w3.org/2000/svg">
  <g id="Layer_1" transform="translate(-2, -4)">
    <g id="Box">
      <polygon points="18,4 10,4 2,12 10,12  " fill="#FFB115" class="Yellow" />
    </g>
  </g>
  <g id="Layer_1" transform="translate(-2, -4)">
    <g id="Box">
      <rect x="2" y="14" width="20" height="14" rx="0" ry="0" fill="#FFB115" class="Yellow" />
    </g>
  </g>
  <g id="Layer_1" transform="translate(-2, -4)">
    <g id="Box">
      <polygon points="24,28 30,22 30,6.8 24,12.8  " fill="#FFB115" class="Yellow" />
    </g>
  </g>
  <g id="Layer_1" transform="translate(-2, -4)">
    <g id="Box">
      <polygon points="21,4 13,12 21.9,12 29.9,4  " fill="#FFB115" class="Yellow" />
    </g>
  </g>
  <g id="Layer_1" transform="translate(14, 12)">
    <g id="Trash">
      <path d="M4, 15C4, 15.6 4.5, 16 5, 16L11, 16C11.5, 16 12, 15.6 12, 15L12, 6L4, 6L4, 15z" fill="#D11C1C" class="Red" />
    </g>
  </g>
  <g id="Layer_1" transform="translate(14, 12)">
    <g id="Trash">
      <path d="M13, 2L10, 2L10, 1C10, 0.4 9.5, 0 9, 0L7, 0C6.5, 0 6, 0.4 6, 1L6, 2L3, 2C2.5, 2 2, 2.4 2, 3L2, 4L7, 4L9, 4L14, 4L14, 3C14, 2.4 13.5, 2 13, 2z" fill="#D11C1C" class="Red" />
    </g>
  </g>
</svg>