<?xml version='1.0' encoding='UTF-8'?>
<svg viewBox="-2 -4 32 32" xmlns="http://www.w3.org/2000/svg">
  <g id="Layer_1" transform="translate(-2, -4)">
    <g id="Box">
      <polygon points="18,4 10,4 2,12 10,12  " fill="#FFB115" class="Yellow" />
    </g>
  </g>
  <g id="Layer_1" transform="translate(-2, -4)">
    <g id="Box">
      <rect x="2" y="14" width="20" height="14" rx="0" ry="0" fill="#FFB115" class="Yellow" />
    </g>
  </g>
  <g id="Layer_1" transform="translate(-2, -4)">
    <g id="Box">
      <polygon points="24,28 30,22 30,6.8 24,12.8  " fill="#FFB115" class="Yellow" />
    </g>
  </g>
  <g id="Layer_1" transform="translate(-2, -4)">
    <g id="Box">
      <polygon points="21,4 13,12 21.9,12 29.9,4  " fill="#FFB115" class="Yellow" />
    </g>
  </g>
  <g id="Layer_1" transform="translate(14, 12)">
    <g id="Book_1_">
      <path d="M13, 16L4, 16C2.9, 16 2, 15.1 2, 14L2, 2C2, 0.9 2.9, 0 4, 0L13, 0C13.6, 0 14, 0.4 14, 1L14, 15C14, 15.6 13.6, 16 13, 16z" fill="#727272" class="Black" />
    </g>
  </g>
  <g id="Layer_1" transform="translate(14, 12)">
    <g id="Book_1_">
      <rect x="4" y="2" width="10" height="2" rx="0" ry="0" fill="#FFFFFF" class="White" />
    </g>
  </g>
</svg>